<svg xmlns="http://www.w3.org/2000/svg" width="38.351" height="25.026" viewBox="0 0 38.351 25.026">
  <path id="パス_19189" data-name="パス 19189" d="M704.281,58.134a4.719,4.719,0,1,0,9.43,0c0-2.575-2.55-4.631-4.715-5.861C706.831,53.5,704.281,55.559,704.281,58.134Zm-4.92-14.487V68.673h38.347V43.647ZM737.7,49.733a19.423,19.423,0,0,0-7.3,1.383c2.37,1.585,4.661,3.986,4.661,7.016A7.122,7.122,0,0,1,728,65.2a7.026,7.026,0,0,1-6.944-7.065c0-3.03,2.178-5.431,4.547-7.016a18.829,18.829,0,0,0-14.166,0c2.37,1.585,4.547,3.986,4.547,7.016a7.026,7.026,0,0,1-6.944,7.065,7.166,7.166,0,0,1-7.109-7.065c0-3.03,2.344-5.431,4.713-7.016a19.391,19.391,0,0,0-7.291-1.383V47.542a21.577,21.577,0,0,1,9.687,2.19,21.613,21.613,0,0,1,18.96,0,21.6,21.6,0,0,1,9.694-2.19Zm-14.258,8.345a4.718,4.718,0,1,0,9.427,0c0-2.575-2.548-4.632-4.714-5.862-2.162,1.23-4.71,3.284-4.71,5.862Z" transform="translate(-699.357 -43.647)" fill="#1ea939"/>
</svg>
