<svg id="グループ_3877" data-name="グループ 3877" xmlns="http://www.w3.org/2000/svg" width="166" height="60" viewBox="0 0 166 60">
  <rect id="長方形_1112" data-name="長方形 1112" width="166" height="60" rx="5" fill="#ca1c40"/>
  <g id="グループ_3698" data-name="グループ 3698" transform="translate(59.09 11.865)">
    <path id="パス_19205" data-name="パス 19205" d="M1116.62,59.591h-13.144v-2.07h1.729V55.306h-2.467V53.235h2.467V51.993c-.378.36-.576.522-.828.738a7.957,7.957,0,0,0-2.287-1.242,13.31,13.31,0,0,0,3.637-4.124l2.575.847c.09.036.18.09.18.2,0,.234-.288.288-.414.324a2.6,2.6,0,0,1-.18.234h10.587V51.2h-1.639v2.034h2.431v2.071h-2.431V57.52h1.873v2.07h-2.071a18.869,18.869,0,0,1,2.862,3.31,18.029,18.029,0,0,0-2.251,1.44,14.672,14.672,0,0,0-2.574-3.385Zm-9.38,1.117c.162.089.306.161.306.323,0,.2-.126.217-.451.271a17.7,17.7,0,0,1-2.34,3.2,5.818,5.818,0,0,0-2.215-1.441,9.578,9.578,0,0,0,2.683-3.367Zm.09-7.473h1.044V51.2h-1.044Zm0,4.286h1.044V55.306h-1.044Zm2.592,2.574a11.951,11.951,0,0,1,1.153,3.529,16.346,16.346,0,0,0-2.629.7,14.462,14.462,0,0,0-.846-3.618Zm.558-6.86h1.045V51.2h-1.045Zm0,4.286h1.045V55.306h-1.045Zm3.134,2.43a12.709,12.709,0,0,1,1.44,3.349,16.882,16.882,0,0,0-2.449.828,20.767,20.767,0,0,0-1.314-3.529Zm.018-8.75v2.034h1.044V51.2Zm0,4.1v2.215h1.044v-2.21Z" transform="translate(-1102.09 -47.365)" fill="#fff"/>
    <path id="パス_19206" data-name="パス 19206" d="M1126.248,64.092h-2.5V60.185a11.281,11.281,0,0,1-1.4,1.8,6.976,6.976,0,0,0-2.125-1.5,11.093,11.093,0,0,0,3.313-5H1120.8V53.163h2.953V51.849a11.127,11.127,0,0,0-2.052.936,12.165,12.165,0,0,0-1.045-3.187l2-.72a16.852,16.852,0,0,1,1.1,2.755V47.527l2.449.144c.234.018.5.037.5.288,0,.217-.288.343-.45.4v4.807h2.467v2.323H1126.5a10.612,10.612,0,0,0,2.323,2.556,5.865,5.865,0,0,0-1.315,1.729,13.57,13.57,0,0,1-1.26-1.17Zm3.187-14.764c.162.036.36.108.36.234,0,.144-.234.27-.4.36a22.964,22.964,0,0,1-.991,2.809,5.426,5.426,0,0,0-1.98-.7,28,28,0,0,0,.918-3.259Zm7.616,7.22.432,2.2-1.8.468v4.843h-2.557V59.9l-4.3,1.153-.415-2.305,4.718-1.206v-6.3a8.6,8.6,0,0,0-1.423,1.494,16.011,16.011,0,0,0-2.232-2.2l1.494-1.71a14.194,14.194,0,0,1,2.161,2.052v-3.3l2.539.216c.144.017.4.035.4.234,0,.144-.2.27-.378.378v8.48Zm-6.32-3.4a14.927,14.927,0,0,1,2.3,2.5c-.45.45-.936.972-1.567,1.656a13.7,13.7,0,0,0-2.214-2.484Z" transform="translate(-1102.09 -47.365)" fill="#fff"/>
    <path id="パス_19207" data-name="パス 19207" d="M1151.289,49.886c.09.036.234.144.234.252,0,.2-.252.288-.523.324a35.652,35.652,0,0,1-2.664,5.2,17.066,17.066,0,0,1,2.683,2.971c-.415.378-1.459,1.512-2.179,2.269a18.491,18.491,0,0,0-2.287-2.809,19.939,19.939,0,0,1-6.284,5.131A9.38,9.38,0,0,0,1138,61.067a16.307,16.307,0,0,0,6.427-5.023,22.9,22.9,0,0,0-3.33-2.5l1.692-2.3c1.549,1.1,2.377,1.692,3.331,2.484a22.88,22.88,0,0,0,2.179-5.167Z" transform="translate(-1102.09 -47.365)" fill="#fff"/>
    <path id="パス_19208" data-name="パス 19208" d="M1169.883,54.406v3.06h-15.646v-3.06Z" transform="translate(-1102.09 -47.365)" fill="#fff"/>
    <path id="パス_19209" data-name="パス 19209" d="M1178.232,48.986c.2.018.414.018.414.252,0,.216-.234.306-.306.342v4.393c0,4.736-2.3,6.735-4.465,8.589a9.163,9.163,0,0,0-2.431-1.963,9.59,9.59,0,0,0,2.917-2.772,6.4,6.4,0,0,0,.882-3.692V48.842Zm4.591-.144c.2.018.343.018.343.2,0,.162-.18.252-.343.324v8.769a19.3,19.3,0,0,0,4.664-4.718,8.382,8.382,0,0,0,1.386,2.7,31,31,0,0,1-5.059,4.988c-.72.522-1.423,1.08-2.125,1.62l-1.908-1.224c.036-.487.072-.937.072-1.441V48.68Z" transform="translate(-1102.09 -47.365)" fill="#fff"/>
    <path id="パス_19210" data-name="パス 19210" d="M1110.319,68.05c.233.036.378.072.378.234,0,.2-.2.252-.307.288-.054.54-.089,1.17-.126,1.908a12.949,12.949,0,0,0,2.827-.9c-.018.666-.036,1.494-.036,1.909a7.737,7.737,0,0,0,.036.972,13.259,13.259,0,0,1-2.953.81c0,.2-.036,1.062-.036,1.225a9.041,9.041,0,0,1,3.061-.541,4.776,4.776,0,0,1,4.988,4.88,4.172,4.172,0,0,1-4.267,4.483c-2.719,0-2.809-2.412-2.827-3.169.378-.126,2-.666,2.232-.756,0,.36,0,1.206.846,1.206.685,0,1.135-.684,1.135-1.584a2.263,2.263,0,0,0-2.4-2.377,8.429,8.429,0,0,0-2.791.63,53.385,53.385,0,0,0,.235,5.42l-2.467,1.116a24.682,24.682,0,0,0-3.151-2.575c-.45.487-.666.739-.919,1.045l-1.3-3.1c.828-.45,4.1-2.935,4.826-3.385,0-.63,0-.774-.018-2.161-1.063.054-2.323.072-3.349.072V70.84a7.523,7.523,0,0,0,1.422.108c.7,0,1.71-.072,1.927-.072,0-1.35-.018-1.548-.073-3.349Zm-4.034,11.613a1.949,1.949,0,0,0,.81.468c.27,0,.253-.63.235-1.314-.216.183-.595.45-1.045.846Zm9.4-9.579a15.316,15.316,0,0,1,3.925,2.881,12.694,12.694,0,0,0-1.746,2.179,10.488,10.488,0,0,0-3.817-2.827Z" transform="translate(-1102.09 -47.365)" fill="#fff"/>
    <path id="パス_19211" data-name="パス 19211" d="M1132.135,80.852c0,.359.127.648.721.648h1.3c.486,0,.594-.2.666-.433.09-.306.307-1.188.415-1.692a5.406,5.406,0,0,0,2.358,1.188,8.263,8.263,0,0,1-.81,2.629,1.864,1.864,0,0,1-1.621.792h-3.313c-1.4,0-2.484-.468-2.484-2.268V78.259h-1.927l.883.234c.108.036.306.09.306.306,0,.342-.379.36-.7.378a9.056,9.056,0,0,1-5.545,5.186,7.311,7.311,0,0,0-2.143-2.143c1.134-.252,4.429-.991,5.15-3.961h-2.647V67.942H1135.1V78.259h-2.954Zm.181-9.976v-.63h-6.644v.63Zm-6.644,1.819v.648h6.644v-.648Zm0,2.539v.72h6.644v-.72Z" transform="translate(-1102.09 -47.365)" fill="#fff"/>
    <path id="パス_19212" data-name="パス 19212" d="M1143.312,84.056h-2.467V79.339a10.428,10.428,0,0,1-.972,1.6,8.873,8.873,0,0,0-1.747-1.836,13.51,13.51,0,0,0,2.449-5.006h-1.855v-2.16h2.125v-1.17a12.781,12.781,0,0,1-1.387.2,8.733,8.733,0,0,0-1.116-2.233,12.749,12.749,0,0,0,5.618-1.152l1.332,1.872a.4.4,0,0,1,.09.2.217.217,0,0,1-.234.216.516.516,0,0,1-.36-.2c-.612.216-.972.342-1.476.486v1.783h1.566V74.1h-1.368a13.382,13.382,0,0,0,2.16,3.133,11.44,11.44,0,0,0-1.62,1.819c-.234-.324-.414-.576-.738-1.1Zm8.354-2.916h-2.629l.937.882a.258.258,0,0,1,.09.2c0,.144-.073.162-.18.162a1.928,1.928,0,0,1-.342-.054,13.264,13.264,0,0,1-3.494,2,13.032,13.032,0,0,0-1.728-1.854,9.146,9.146,0,0,0,2.9-1.332h-1.153V74.406h8.553V81.14h-1.12a10.924,10.924,0,0,0,2.268,1.26,16.318,16.318,0,0,0-1.638,1.765,12.3,12.3,0,0,1-3.385-2.179Zm3.511-12.73v1.548h-3.6v.5h2.719v1.315h-2.719V72.3h3.871v1.53H1145.4V72.3h3.619v-.522h-2.52V70.462h2.52v-.5H1145.6V68.41h3.421v-.883l2.773.108c.054,0,.234.019.234.163,0,.216-.288.324-.45.378v.234Zm-3.025,8.012v-.63H1148.5v.63ZM1148.5,77.43v.649h3.655V77.43Zm0,1.657v.648h3.655v-.648Z" transform="translate(-1102.09 -47.365)" fill="#fff"/>
    <path id="パス_19213" data-name="パス 19213" d="M1161.114,68.446c.324.072.5.126.5.324,0,.234-.306.288-.432.306a13.755,13.755,0,0,0-.792,4.591,6.838,6.838,0,0,0,.162,1.6c.144-.288.2-.432.414-.955a4.126,4.126,0,0,1,.558-1.026,13.152,13.152,0,0,0,1.8,1.5,13.962,13.962,0,0,0-1.855,4.555l-2.575.306a17.622,17.622,0,0,1-.684-11.127c.09-.4.09-.486.126-.7Zm8.229-.666c.18,0,.414.018.414.252,0,.2-.162.234-.288.27.018.63.252,3.367.288,3.925.054.648.09,1.4.09,2.106a10.435,10.435,0,0,1-5.42,9.9,6.622,6.622,0,0,0-2.341-2.106c4.322-2.089,4.736-5.2,4.736-7.85a25.323,25.323,0,0,0-.684-6.591Z" transform="translate(-1102.09 -47.365)" fill="#fff"/>
  </g>
  <g id="グループ_3705" data-name="グループ 3705" transform="translate(12.022 15.322)">
    <g id="グループ_3704" data-name="グループ 3704">
      <path id="パス_19229" data-name="パス 19229" d="M1088.7,80.173a3.16,3.16,0,0,0,2.164-.816L1080.386,68.88l-.726.521q-1.176.867-1.908,1.351a11.775,11.775,0,0,1-1.95.991,5.932,5.932,0,0,1-2.27.5h-.041a5.928,5.928,0,0,1-2.271-.5,11.74,11.74,0,0,1-1.95-.991q-.732-.483-1.909-1.351c-.218-.16-.461-.336-.723-.524l-10.478,10.48a3.16,3.16,0,0,0,2.164.816Z" transform="translate(-1055.022 -50.822)" fill="#fff"/>
      <path id="パス_19230" data-name="パス 19230" d="M1057.533,62.283a10.96,10.96,0,0,1-2.085-1.8v15.94l9.234-9.234Q1061.911,65.258,1057.533,62.283Z" transform="translate(-1055.022 -50.822)" fill="#fff"/>
      <path id="パス_19231" data-name="パス 19231" d="M1089.511,62.283q-4.217,2.853-7.167,4.914l9.23,9.23V60.487a11.361,11.361,0,0,1-2.063,1.8Z" transform="translate(-1055.022 -50.822)" fill="#fff"/>
      <path id="パス_19232" data-name="パス 19232" d="M1088.7,50.827h-30.374a2.946,2.946,0,0,0-2.445,1.073,4.164,4.164,0,0,0-.856,2.683,4.826,4.826,0,0,0,1.134,2.817,10.233,10.233,0,0,0,2.415,2.382q.7.5,4.23,2.941c1.27.88,2.374,1.647,3.324,2.309.809.564,1.506,1.052,2.082,1.457l.309.219.569.411q.67.484,1.114.784t1.073.67a6.247,6.247,0,0,0,1.187.558,3.3,3.3,0,0,0,1.031.185h.041a3.3,3.3,0,0,0,1.032-.185,6.271,6.271,0,0,0,1.187-.558q.629-.371,1.073-.67t1.114-.784c.232-.168.42-.3.569-.41l.308-.22,2.088-1.451,7.569-5.256a9.811,9.811,0,0,0,2.518-2.537,5.464,5.464,0,0,0,1.01-3.116,3.329,3.329,0,0,0-3.3-3.3Z" transform="translate(-1055.022 -50.822)" fill="#fff"/>
    </g>
  </g>
</svg>
