<svg xmlns="http://www.w3.org/2000/svg" xmlns:xlink="http://www.w3.org/1999/xlink" width="308.276" height="56.053" viewBox="0 0 308.276 56.053">
  <defs>
    <clipPath id="clip-path">
      <path id="パス_18102" data-name="パス 18102" d="M1240.723,4030.222H934.668v-53.829h306.054l-11.147,27.009Z"/>
    </clipPath>
    <clipPath id="clip-path-2">
      <path id="パス_18104" data-name="パス 18104" d="M1238.5,4028H932.446v-53.829H1238.5l-11.147,27.009Z" fill="#eee3b6"/>
    </clipPath>
  </defs>
  <g id="グループ_8324" data-name="グループ 8324" transform="translate(15673.554 16765.83)">
    <g id="グループ_3248" data-name="グループ 3248" transform="translate(-16606 -20740)" opacity="0.2" style="mix-blend-mode: multiply;isolation: isolate">
      <g id="グループ_3247" data-name="グループ 3247">
        <path id="パス_18101" data-name="パス 18101" d="M1240.723,4030.222H934.668v-53.829h306.054l-11.147,27.009Z"/>
        <g id="グループ_3246" data-name="グループ 3246" clip-path="url(#clip-path)">
          <rect id="長方形_965" data-name="長方形 965" width="306.054" height="26.915" transform="translate(934.668 4003.308)"/>
        </g>
      </g>
    </g>
    <g id="グループ_3251" data-name="グループ 3251" transform="translate(-16606 -20740)">
      <g id="グループ_3250" data-name="グループ 3250">
        <path id="パス_18103" data-name="パス 18103" d="M1238.5,4028H932.446v-53.829H1238.5l-11.147,27.009Z" fill="#eee3b6"/>
        <g id="グループ_3249" data-name="グループ 3249" clip-path="url(#clip-path-2)">
          <rect id="長方形_966" data-name="長方形 966" width="306.054" height="26.915" transform="translate(932.446 4001.085)" fill="#e5d49a"/>
        </g>
      </g>
    </g>
    <circle id="楕円形_277" data-name="楕円形 277" cx="22.876" cy="22.876" r="22.876" transform="translate(-15665.253 -16761.379)" fill="#ca1c40" stroke="#e5d49a" stroke-width="4.323"/>
    <g id="グループ_3253" data-name="グループ 3253" transform="translate(-16606 -20740)">
      <path id="パス_18105" data-name="パス 18105" d="M951.642,3990.24c-.082.316-.137.481-.3.481-.1,0-.151-.082-.206-.179l-.934-1.744a6.362,6.362,0,0,0,2.005-.343v-3.488a7.662,7.662,0,0,0-1.483.1l-.234-.508c.577.055,1.14.082,1.717.082v-3.282a7.555,7.555,0,0,0-1.593.1l-.22-.508c.646.055,1.3.082,1.95.082h1.14l.453-.713c.028-.056.138-.179.206-.179.083,0,.124.041.261.165l.852.7a.311.311,0,0,1,.137.206c0,.137-.137.151-.206.151h-1.634v3.282h.11l.439-.755c.028-.055.11-.165.192-.165s.193.1.248.151l.782.742c.1.082.138.137.138.22,0,.137-.138.137-.206.137h-1.7v3.09c1.263-.4,1.716-.577,2.046-.714l.055.11A36.057,36.057,0,0,1,951.642,3990.24Zm11.1,1.387h-7.374a6.863,6.863,0,0,0-1.484.1l-.219-.509c.837.069,1.8.083,1.95.083h2.348v-2.486h-.865a6.887,6.887,0,0,0-1.483.1l-.22-.508c.824.069,1.8.082,1.95.082h.618v-2.307H956.8a.731.731,0,0,1-.81.866c-.48,0-.48-.316-.48-.522,0-.563.027-3.09.027-3.6a12.785,12.785,0,0,0-.151-3.007l1.579.659H960.4l.411-.549c.083-.11.124-.165.193-.165a.464.464,0,0,1,.233.11l.934.728a.207.207,0,0,1,.11.179c0,.178-.22.329-.4.466,0,.481-.014,1.209.013,2.376,0,.357.069,1.978.069,2.307,0,.55-.494.783-.961.783-.536,0-.522-.343-.508-.632h-1.181v2.307h.851l.6-.824c.083-.123.138-.178.22-.178s.192.1.247.137l.962.838c.068.068.137.082.137.206s-.124.151-.206.151h-2.815v2.486h1.359l.6-.921c.1-.15.165-.178.206-.178.083,0,.206.11.261.151l1.058.92c.082.069.137.124.137.206C962.944,3991.6,962.834,3991.627,962.738,3991.627Zm-4.779-10.725h-1.167v2.266h1.167Zm0,2.6h-1.167v2.348h1.167Zm2.554-2.6h-1.194v2.266h1.194Zm0,2.6h-1.194v2.348h1.194Z" fill="none" stroke="#ca1c40" stroke-linecap="round" stroke-linejoin="round" stroke-width="4.323"/>
      <path id="パス_18106" data-name="パス 18106" d="M975.64,3983.607v4.422c0,.481.082,2.568.082,2.994a.741.741,0,0,1-.233.618,1.248,1.248,0,0,1-.811.288c-.494,0-.563-.329-.521-.906h-7.389a.865.865,0,0,1-.947,1.016c-.618,0-.618-.371-.618-.59,0-.193.055-1.044.068-1.222.069-1.662.069-4.464.069-5.054a14.892,14.892,0,0,0-.151-3.117l1.854.741h2.664c-.014-.261-.014-1.456-.027-1.689a6.316,6.316,0,0,0-.33-1.525l2.142.426a.193.193,0,0,1,.152.179c0,.082,0,.165-.481.494v2.115h2.911l.44-.673c.123-.192.192-.192.247-.192a.466.466,0,0,1,.247.124l1.044.768a.224.224,0,0,1,.123.193C976.175,3983.209,975.75,3983.525,975.64,3983.607Zm-5.933-.481h-2.939v3.489h2.939Zm0,3.818h-2.939v3.749h2.939Zm4.463-3.818h-3.007v3.489h3.007Zm0,3.818h-3.007v3.749h3.007Z" fill="none" stroke="#ca1c40" stroke-linecap="round" stroke-linejoin="round" stroke-width="4.323"/>
      <path id="パス_18107" data-name="パス 18107" d="M958.872,4013.586a4.177,4.177,0,0,0,2.68-.57,3.008,3.008,0,0,0,.59-2.164v-10.577a3.237,3.237,0,0,0-.234-1.447.9.9,0,0,0-.865-.429,3.747,3.747,0,0,0-1.032.228q-.442.134-1.206.429v-.7l6.929-2.989h.483v15.642a3.138,3.138,0,0,0,.483,2.038q.481.535,2.466.536v.657H958.872Z" fill="none" stroke="#ca1c40" stroke-linecap="round" stroke-linejoin="round" stroke-width="4.323"/>
    </g>
    <g id="グループ_3254" data-name="グループ 3254" transform="translate(-16606 -20740)">
      <path id="パス_18108" data-name="パス 18108" d="M951.642,3990.24c-.082.316-.137.481-.3.481-.1,0-.151-.082-.206-.179l-.934-1.744a6.362,6.362,0,0,0,2.005-.343v-3.488a7.662,7.662,0,0,0-1.483.1l-.234-.508c.577.055,1.14.082,1.717.082v-3.282a7.555,7.555,0,0,0-1.593.1l-.22-.508c.646.055,1.3.082,1.95.082h1.14l.453-.713c.028-.056.138-.179.206-.179.083,0,.124.041.261.165l.852.7a.311.311,0,0,1,.137.206c0,.137-.137.151-.206.151h-1.634v3.282h.11l.439-.755c.028-.055.11-.165.192-.165s.193.1.248.151l.782.742c.1.082.138.137.138.22,0,.137-.138.137-.206.137h-1.7v3.09c1.263-.4,1.716-.577,2.046-.714l.055.11A36.057,36.057,0,0,1,951.642,3990.24Zm11.1,1.387h-7.374a6.863,6.863,0,0,0-1.484.1l-.219-.509c.837.069,1.8.083,1.95.083h2.348v-2.486h-.865a6.887,6.887,0,0,0-1.483.1l-.22-.508c.824.069,1.8.082,1.95.082h.618v-2.307H956.8a.731.731,0,0,1-.81.866c-.48,0-.48-.316-.48-.522,0-.563.027-3.09.027-3.6a12.785,12.785,0,0,0-.151-3.007l1.579.659H960.4l.411-.549c.083-.11.124-.165.193-.165a.464.464,0,0,1,.233.11l.934.728a.207.207,0,0,1,.11.179c0,.178-.22.329-.4.466,0,.481-.014,1.209.013,2.376,0,.357.069,1.978.069,2.307,0,.55-.494.783-.961.783-.536,0-.522-.343-.508-.632h-1.181v2.307h.851l.6-.824c.083-.123.138-.178.22-.178s.192.1.247.137l.962.838c.068.068.137.082.137.206s-.124.151-.206.151h-2.815v2.486h1.359l.6-.921c.1-.15.165-.178.206-.178.083,0,.206.11.261.151l1.058.92c.082.069.137.124.137.206C962.944,3991.6,962.834,3991.627,962.738,3991.627Zm-4.779-10.725h-1.167v2.266h1.167Zm0,2.6h-1.167v2.348h1.167Zm2.554-2.6h-1.194v2.266h1.194Zm0,2.6h-1.194v2.348h1.194Z" fill="#fff"/>
      <path id="パス_18109" data-name="パス 18109" d="M975.64,3983.607v4.422c0,.481.082,2.568.082,2.994a.741.741,0,0,1-.233.618,1.248,1.248,0,0,1-.811.288c-.494,0-.563-.329-.521-.906h-7.389a.865.865,0,0,1-.947,1.016c-.618,0-.618-.371-.618-.59,0-.193.055-1.044.068-1.222.069-1.662.069-4.464.069-5.054a14.892,14.892,0,0,0-.151-3.117l1.854.741h2.664c-.014-.261-.014-1.456-.027-1.689a6.316,6.316,0,0,0-.33-1.525l2.142.426a.193.193,0,0,1,.152.179c0,.082,0,.165-.481.494v2.115h2.911l.44-.673c.123-.192.192-.192.247-.192a.466.466,0,0,1,.247.124l1.044.768a.224.224,0,0,1,.123.193C976.175,3983.209,975.75,3983.525,975.64,3983.607Zm-5.933-.481h-2.939v3.489h2.939Zm0,3.818h-2.939v3.749h2.939Zm4.463-3.818h-3.007v3.489h3.007Zm0,3.818h-3.007v3.749h3.007Z" fill="#fff"/>
      <path id="パス_18110" data-name="パス 18110" d="M958.872,4013.586a4.177,4.177,0,0,0,2.68-.57,3.008,3.008,0,0,0,.59-2.164v-10.577a3.237,3.237,0,0,0-.234-1.447.9.9,0,0,0-.865-.429,3.747,3.747,0,0,0-1.032.228q-.442.134-1.206.429v-.7l6.929-2.989h.483v15.642a3.138,3.138,0,0,0,.483,2.038q.481.535,2.466.536v.657H958.872Z" fill="#fff"/>
    </g>
  </g>
</svg>
