<svg xmlns="http://www.w3.org/2000/svg" xmlns:xlink="http://www.w3.org/1999/xlink" width="308.276" height="56.053" viewBox="0 0 308.276 56.053">
  <defs>
    <clipPath id="clip-path">
      <path id="パス_18251" data-name="パス 18251" d="M1240.723,4310.223H934.668v-53.83h306.054l-11.147,27.009Z"/>
    </clipPath>
    <clipPath id="clip-path-2">
      <path id="パス_18253" data-name="パス 18253" d="M1238.5,4308H932.446v-53.83H1238.5l-11.147,27.009Z" fill="#eee3b6"/>
    </clipPath>
  </defs>
  <g id="グループ_8325" data-name="グループ 8325" transform="translate(15650.554 16460.83)">
    <g id="グループ_8316" data-name="グループ 8316" transform="translate(-16583 -20715)">
      <g id="グループ_3269" data-name="グループ 3269">
        <g id="グループ_3265" data-name="グループ 3265" opacity="0.2" style="mix-blend-mode: multiply;isolation: isolate">
          <g id="グループ_3264" data-name="グループ 3264">
            <path id="パス_18250" data-name="パス 18250" d="M1240.723,4310.223H934.668v-53.83h306.054l-11.147,27.009Z"/>
            <g id="グループ_3263" data-name="グループ 3263" clip-path="url(#clip-path)">
              <rect id="長方形_969" data-name="長方形 969" width="306.054" height="26.915" transform="translate(934.668 4283.308)"/>
            </g>
          </g>
        </g>
        <g id="グループ_3268" data-name="グループ 3268">
          <g id="グループ_3267" data-name="グループ 3267">
            <path id="パス_18252" data-name="パス 18252" d="M1238.5,4308H932.446v-53.83H1238.5l-11.147,27.009Z" fill="#eee3b6"/>
            <g id="グループ_3266" data-name="グループ 3266" clip-path="url(#clip-path-2)">
              <rect id="長方形_970" data-name="長方形 970" width="306.054" height="26.915" transform="translate(932.446 4281.085)" fill="#e5d49a"/>
            </g>
          </g>
        </g>
      </g>
      <circle id="楕円形_278" data-name="楕円形 278" cx="22.876" cy="22.876" r="22.876" transform="translate(940.747 4258.622)" fill="#ca1c40" stroke="#e5d49a" stroke-width="4.323"/>
      <g id="グループ_3272" data-name="グループ 3272">
        <g id="グループ_3270" data-name="グループ 3270">
          <path id="パス_18254" data-name="パス 18254" d="M951.642,4270.24c-.082.316-.137.481-.3.481-.1,0-.151-.082-.206-.179l-.934-1.744a6.366,6.366,0,0,0,2.005-.343v-3.488a7.653,7.653,0,0,0-1.483.1l-.234-.508c.577.055,1.14.082,1.717.082v-3.282a7.514,7.514,0,0,0-1.593.1l-.22-.508c.646.055,1.3.082,1.95.082h1.14l.453-.713c.028-.056.138-.179.206-.179.083,0,.124.041.261.165l.852.7a.311.311,0,0,1,.137.206c0,.137-.137.151-.206.151h-1.634v3.282h.11l.439-.755c.028-.055.11-.165.192-.165s.193.1.248.151l.782.742c.1.082.138.137.138.22,0,.137-.138.137-.206.137h-1.7v3.09c1.263-.4,1.716-.577,2.046-.714l.055.11A36.092,36.092,0,0,1,951.642,4270.24Zm11.1,1.387h-7.374a6.847,6.847,0,0,0-1.484.1l-.219-.509c.837.069,1.8.083,1.95.083h2.348v-2.486h-.865a6.849,6.849,0,0,0-1.483.1l-.22-.508c.824.069,1.8.082,1.95.082h.618v-2.307H956.8a.731.731,0,0,1-.81.866c-.48,0-.48-.316-.48-.522,0-.563.027-3.09.027-3.6a12.787,12.787,0,0,0-.151-3.007l1.579.659H960.4l.411-.549c.083-.11.124-.165.193-.165a.464.464,0,0,1,.233.11l.934.728a.207.207,0,0,1,.11.179c0,.178-.22.329-.4.466,0,.481-.014,1.209.013,2.376,0,.357.069,1.978.069,2.307,0,.55-.494.783-.961.783-.536,0-.522-.343-.508-.632h-1.181v2.307h.851l.6-.824c.083-.123.138-.178.22-.178s.192.1.247.137l.962.838c.068.068.137.082.137.206s-.124.151-.206.151h-2.815v2.486h1.359l.6-.921c.1-.15.165-.178.206-.178.083,0,.206.11.261.151l1.058.92c.082.069.137.124.137.206C962.944,4271.6,962.834,4271.627,962.738,4271.627Zm-4.779-10.725h-1.167v2.266h1.167Zm0,2.6h-1.167v2.348h1.167Zm2.554-2.6h-1.194v2.266h1.194Zm0,2.6h-1.194v2.348h1.194Z" fill="none" stroke="#ca1c40" stroke-linecap="round" stroke-linejoin="round" stroke-width="4.323"/>
          <path id="パス_18255" data-name="パス 18255" d="M975.64,4263.607v4.422c0,.481.082,2.568.082,2.994a.741.741,0,0,1-.233.618,1.25,1.25,0,0,1-.811.288c-.494,0-.563-.329-.521-.906h-7.389a.865.865,0,0,1-.947,1.016c-.618,0-.618-.371-.618-.59,0-.193.055-1.044.068-1.222.069-1.662.069-4.464.069-5.054a14.887,14.887,0,0,0-.151-3.117l1.854.741h2.664c-.014-.261-.014-1.456-.027-1.689a6.318,6.318,0,0,0-.33-1.525l2.142.426a.194.194,0,0,1,.152.179c0,.082,0,.165-.481.494v2.115h2.911l.44-.673c.123-.192.192-.192.247-.192a.464.464,0,0,1,.247.124l1.044.768a.223.223,0,0,1,.123.193C976.175,4263.209,975.75,4263.525,975.64,4263.607Zm-5.933-.481h-2.939v3.489h2.939Zm0,3.818h-2.939v3.749h2.939Zm4.463-3.818h-3.007v3.489h3.007Zm0,3.818h-3.007v3.749h3.007Z" fill="none" stroke="#ca1c40" stroke-linecap="round" stroke-linejoin="round" stroke-width="4.323"/>
          <path id="パス_18256" data-name="パス 18256" d="M957.5,4293.613a83.688,83.688,0,0,0,5.71-6.609,8.894,8.894,0,0,0,2.038-4.986,4.12,4.12,0,0,0-.784-2.406,2.768,2.768,0,0,0-2.433-1.119,3.3,3.3,0,0,0-2.44,1,5.079,5.079,0,0,0-.951,1.475h-.751a9.026,9.026,0,0,1,2.52-4.229,5.427,5.427,0,0,1,3.619-1.374,5.213,5.213,0,0,1,3.458,1.32,4.8,4.8,0,0,1,1.555,3.88,5.941,5.941,0,0,1-.73,2.748,12.277,12.277,0,0,1-2.461,3.057l-4.183,3.994v.228h3.9a6.7,6.7,0,0,0,2.661-.335,3.68,3.68,0,0,0,1.254-1.8h.656l-1.233,5.778H957.5Z" fill="none" stroke="#ca1c40" stroke-linecap="round" stroke-linejoin="round" stroke-width="4.323"/>
        </g>
        <g id="グループ_3271" data-name="グループ 3271">
          <path id="パス_18257" data-name="パス 18257" d="M951.642,4270.24c-.082.316-.137.481-.3.481-.1,0-.151-.082-.206-.179l-.934-1.744a6.366,6.366,0,0,0,2.005-.343v-3.488a7.653,7.653,0,0,0-1.483.1l-.234-.508c.577.055,1.14.082,1.717.082v-3.282a7.514,7.514,0,0,0-1.593.1l-.22-.508c.646.055,1.3.082,1.95.082h1.14l.453-.713c.028-.056.138-.179.206-.179.083,0,.124.041.261.165l.852.7a.311.311,0,0,1,.137.206c0,.137-.137.151-.206.151h-1.634v3.282h.11l.439-.755c.028-.055.11-.165.192-.165s.193.1.248.151l.782.742c.1.082.138.137.138.22,0,.137-.138.137-.206.137h-1.7v3.09c1.263-.4,1.716-.577,2.046-.714l.055.11A36.092,36.092,0,0,1,951.642,4270.24Zm11.1,1.387h-7.374a6.847,6.847,0,0,0-1.484.1l-.219-.509c.837.069,1.8.083,1.95.083h2.348v-2.486h-.865a6.849,6.849,0,0,0-1.483.1l-.22-.508c.824.069,1.8.082,1.95.082h.618v-2.307H956.8a.731.731,0,0,1-.81.866c-.48,0-.48-.316-.48-.522,0-.563.027-3.09.027-3.6a12.787,12.787,0,0,0-.151-3.007l1.579.659H960.4l.411-.549c.083-.11.124-.165.193-.165a.464.464,0,0,1,.233.11l.934.728a.207.207,0,0,1,.11.179c0,.178-.22.329-.4.466,0,.481-.014,1.209.013,2.376,0,.357.069,1.978.069,2.307,0,.55-.494.783-.961.783-.536,0-.522-.343-.508-.632h-1.181v2.307h.851l.6-.824c.083-.123.138-.178.22-.178s.192.1.247.137l.962.838c.068.068.137.082.137.206s-.124.151-.206.151h-2.815v2.486h1.359l.6-.921c.1-.15.165-.178.206-.178.083,0,.206.11.261.151l1.058.92c.082.069.137.124.137.206C962.944,4271.6,962.834,4271.627,962.738,4271.627Zm-4.779-10.725h-1.167v2.266h1.167Zm0,2.6h-1.167v2.348h1.167Zm2.554-2.6h-1.194v2.266h1.194Zm0,2.6h-1.194v2.348h1.194Z" fill="#fff"/>
          <path id="パス_18258" data-name="パス 18258" d="M975.64,4263.607v4.422c0,.481.082,2.568.082,2.994a.741.741,0,0,1-.233.618,1.25,1.25,0,0,1-.811.288c-.494,0-.563-.329-.521-.906h-7.389a.865.865,0,0,1-.947,1.016c-.618,0-.618-.371-.618-.59,0-.193.055-1.044.068-1.222.069-1.662.069-4.464.069-5.054a14.887,14.887,0,0,0-.151-3.117l1.854.741h2.664c-.014-.261-.014-1.456-.027-1.689a6.318,6.318,0,0,0-.33-1.525l2.142.426a.194.194,0,0,1,.152.179c0,.082,0,.165-.481.494v2.115h2.911l.44-.673c.123-.192.192-.192.247-.192a.464.464,0,0,1,.247.124l1.044.768a.223.223,0,0,1,.123.193C976.175,4263.209,975.75,4263.525,975.64,4263.607Zm-5.933-.481h-2.939v3.489h2.939Zm0,3.818h-2.939v3.749h2.939Zm4.463-3.818h-3.007v3.489h3.007Zm0,3.818h-3.007v3.749h3.007Z" fill="#fff"/>
          <path id="パス_18259" data-name="パス 18259" d="M957.5,4293.613a83.688,83.688,0,0,0,5.71-6.609,8.894,8.894,0,0,0,2.038-4.986,4.12,4.12,0,0,0-.784-2.406,2.768,2.768,0,0,0-2.433-1.119,3.3,3.3,0,0,0-2.44,1,5.079,5.079,0,0,0-.951,1.475h-.751a9.026,9.026,0,0,1,2.52-4.229,5.427,5.427,0,0,1,3.619-1.374,5.213,5.213,0,0,1,3.458,1.32,4.8,4.8,0,0,1,1.555,3.88,5.941,5.941,0,0,1-.73,2.748,12.277,12.277,0,0,1-2.461,3.057l-4.183,3.994v.228h3.9a6.7,6.7,0,0,0,2.661-.335,3.68,3.68,0,0,0,1.254-1.8h.656l-1.233,5.778H957.5Z" fill="#fff"/>
        </g>
      </g>
    </g>
  </g>
</svg>
