<svg xmlns="http://www.w3.org/2000/svg" width="166" height="60" viewBox="0 0 166 60">
  <g id="グループ_3878" data-name="グループ 3878" transform="translate(0.007)">
    <rect id="長方形_1113" data-name="長方形 1113" width="166" height="60" rx="5" transform="translate(-0.007)" fill="#00b900"/>
    <g id="グループ_3699" data-name="グループ 3699" transform="translate(61.09 11.865)">
      <path id="パス_19214" data-name="パス 19214" d="M1294.62,59.591h-13.144v-2.07h1.729V55.306h-2.467V53.235h2.467V51.993c-.378.36-.576.522-.828.738a7.959,7.959,0,0,0-2.287-1.242,13.312,13.312,0,0,0,3.637-4.124l2.575.847c.09.036.18.09.18.2,0,.234-.288.288-.414.324a2.6,2.6,0,0,1-.18.234h10.587V51.2h-1.639v2.034h2.431v2.071h-2.431V57.52h1.873v2.07h-2.071a18.876,18.876,0,0,1,2.862,3.31,18.032,18.032,0,0,0-2.251,1.44,14.669,14.669,0,0,0-2.574-3.385Zm-9.38,1.117c.162.089.306.161.306.323,0,.2-.126.217-.451.271a17.7,17.7,0,0,1-2.34,3.2,5.818,5.818,0,0,0-2.215-1.441,9.579,9.579,0,0,0,2.683-3.367Zm.09-7.473h1.044V51.2h-1.044Zm0,4.286h1.044V55.306h-1.044Zm2.592,2.574a11.958,11.958,0,0,1,1.153,3.529,16.347,16.347,0,0,0-2.629.7,14.462,14.462,0,0,0-.846-3.618Zm.558-6.86h1.045V51.2h-1.045Zm0,4.286h1.045V55.306h-1.045Zm3.134,2.43a12.717,12.717,0,0,1,1.44,3.349,16.881,16.881,0,0,0-2.449.828,20.777,20.777,0,0,0-1.314-3.529Zm.018-8.75v2.034h1.044V51.2Zm0,4.1v2.215h1.044v-2.21Z" transform="translate(-1280.09 -47.365)" fill="#fff"/>
      <path id="パス_19215" data-name="パス 19215" d="M1304.248,64.092h-2.5V60.185a11.281,11.281,0,0,1-1.4,1.8,6.979,6.979,0,0,0-2.125-1.495,11.092,11.092,0,0,0,3.313-5H1298.8V53.163h2.953V51.849a11.127,11.127,0,0,0-2.052.936,12.17,12.17,0,0,0-1.045-3.187l2-.72a16.874,16.874,0,0,1,1.1,2.755V47.527l2.449.144c.234.018.5.037.5.288,0,.217-.288.343-.45.4v4.807h2.467v2.323H1304.5a10.615,10.615,0,0,0,2.323,2.556,5.865,5.865,0,0,0-1.315,1.729,13.567,13.567,0,0,1-1.26-1.17Zm3.187-14.764c.162.036.36.108.36.234,0,.144-.234.27-.4.36a22.964,22.964,0,0,1-.991,2.809,5.426,5.426,0,0,0-1.98-.7,27.978,27.978,0,0,0,.918-3.259Zm7.616,7.22.432,2.2-1.8.468v4.843h-2.557V59.9l-4.3,1.153-.415-2.305,4.718-1.206v-6.3a8.6,8.6,0,0,0-1.423,1.494,16.02,16.02,0,0,0-2.232-2.2l1.494-1.71a14.2,14.2,0,0,1,2.161,2.052v-3.3l2.539.216c.144.017.4.035.4.234,0,.144-.2.27-.378.378v8.48Zm-6.32-3.4a14.927,14.927,0,0,1,2.3,2.5c-.45.45-.936.972-1.567,1.656a13.693,13.693,0,0,0-2.214-2.484Z" transform="translate(-1280.09 -47.365)" fill="#fff"/>
      <path id="パス_19216" data-name="パス 19216" d="M1317.188,62.76V48.572h3.241V60.113h7.274V62.76Z" transform="translate(-1280.09 -47.365)" fill="#fff"/>
      <path id="パス_19217" data-name="パス 19217" d="M1333.335,62.76h-3.349V48.572h3.349Z" transform="translate(-1280.09 -47.365)" fill="#fff"/>
      <path id="パス_19218" data-name="パス 19218" d="M1346.405,62.76l-7.166-9.651.108,9.651h-3.187V48.572h3.079l7.166,9.651-.108-9.651h3.187V62.76Z" transform="translate(-1280.09 -47.365)" fill="#fff"/>
      <path id="パス_19219" data-name="パス 19219" d="M1363.577,60.221V62.76h-11.631V48.572h11.4v2.539h-8.157V54.3h7.2v2.431h-7.2v3.493Z" transform="translate(-1280.09 -47.365)" fill="#fff"/>
      <path id="パス_19220" data-name="パス 19220" d="M1288.319,68.05c.233.036.378.072.378.234,0,.2-.2.252-.307.288-.054.54-.089,1.17-.126,1.908a12.95,12.95,0,0,0,2.827-.9c-.018.666-.036,1.494-.036,1.909a7.737,7.737,0,0,0,.036.972,13.262,13.262,0,0,1-2.953.81c0,.2-.036,1.062-.036,1.225a9.041,9.041,0,0,1,3.061-.541,4.776,4.776,0,0,1,4.988,4.88,4.172,4.172,0,0,1-4.267,4.483c-2.719,0-2.809-2.412-2.827-3.169.378-.126,2-.666,2.232-.756,0,.36,0,1.206.846,1.206.685,0,1.135-.684,1.135-1.584a2.263,2.263,0,0,0-2.4-2.377,8.429,8.429,0,0,0-2.791.63,53.421,53.421,0,0,0,.235,5.42l-2.467,1.116a24.682,24.682,0,0,0-3.151-2.575c-.45.487-.666.739-.919,1.045l-1.3-3.1c.828-.45,4.1-2.935,4.826-3.385,0-.63,0-.774-.018-2.161-1.063.054-2.323.072-3.349.072V70.84a7.522,7.522,0,0,0,1.422.108c.7,0,1.71-.072,1.927-.072,0-1.35-.018-1.548-.073-3.349Zm-4.034,11.613a1.948,1.948,0,0,0,.81.468c.27,0,.253-.63.235-1.314-.216.183-.595.45-1.045.846Zm9.4-9.579a15.316,15.316,0,0,1,3.925,2.881,12.694,12.694,0,0,0-1.746,2.179,10.49,10.49,0,0,0-3.817-2.827Z" transform="translate(-1280.09 -47.365)" fill="#fff"/>
      <path id="パス_19221" data-name="パス 19221" d="M1310.135,80.852c0,.359.127.648.721.648h1.3c.486,0,.594-.2.666-.433.09-.306.307-1.188.415-1.692a5.406,5.406,0,0,0,2.358,1.188,8.263,8.263,0,0,1-.81,2.629,1.864,1.864,0,0,1-1.621.792h-3.313c-1.4,0-2.484-.468-2.484-2.268V78.259h-1.927l.883.234c.108.036.306.09.306.306,0,.342-.379.36-.7.378a9.056,9.056,0,0,1-5.545,5.186,7.31,7.31,0,0,0-2.143-2.143c1.134-.252,4.429-.991,5.15-3.961h-2.647V67.942H1313.1V78.259h-2.954Zm.181-9.976v-.63h-6.644v.63Zm-6.644,1.819v.648h6.644v-.648Zm0,2.539v.72h6.644v-.72Z" transform="translate(-1280.09 -47.365)" fill="#fff"/>
      <path id="パス_19222" data-name="パス 19222" d="M1321.312,84.056h-2.467V79.339a10.428,10.428,0,0,1-.972,1.6,8.87,8.87,0,0,0-1.747-1.836,13.509,13.509,0,0,0,2.449-5.006h-1.855v-2.16h2.125v-1.17a12.781,12.781,0,0,1-1.387.2,8.737,8.737,0,0,0-1.116-2.233,12.749,12.749,0,0,0,5.618-1.152l1.332,1.872a.4.4,0,0,1,.09.2.217.217,0,0,1-.234.216.516.516,0,0,1-.36-.2c-.612.216-.972.342-1.476.486v1.783h1.566V74.1h-1.368a13.378,13.378,0,0,0,2.16,3.133,11.446,11.446,0,0,0-1.62,1.819c-.234-.324-.414-.576-.738-1.1Zm8.354-2.916h-2.629l.937.882a.258.258,0,0,1,.09.2c0,.144-.073.162-.18.162a1.929,1.929,0,0,1-.342-.054,13.264,13.264,0,0,1-3.494,2,13.043,13.043,0,0,0-1.728-1.854,9.146,9.146,0,0,0,2.9-1.332h-1.153V74.406h8.553V81.14h-1.12a10.924,10.924,0,0,0,2.268,1.26,16.318,16.318,0,0,0-1.638,1.765,12.3,12.3,0,0,1-3.385-2.179Zm3.511-12.73v1.548h-3.6v.5h2.719v1.315h-2.719V72.3h3.871v1.53H1323.4V72.3h3.619v-.522h-2.52V70.462h2.52v-.5H1323.6V68.41h3.421v-.883l2.773.108c.054,0,.234.019.234.163,0,.216-.288.324-.45.378v.234Zm-3.025,8.012v-.63H1326.5v.63ZM1326.5,77.43v.649h3.655V77.43Zm0,1.657v.648h3.655v-.648Z" transform="translate(-1280.09 -47.365)" fill="#fff"/>
      <path id="パス_19223" data-name="パス 19223" d="M1339.114,68.446c.324.072.5.126.5.324,0,.234-.306.288-.432.306a13.755,13.755,0,0,0-.792,4.591,6.838,6.838,0,0,0,.162,1.6c.144-.288.2-.432.414-.955a4.126,4.126,0,0,1,.558-1.026,13.163,13.163,0,0,0,1.8,1.495,13.962,13.962,0,0,0-1.855,4.555l-2.575.306a17.623,17.623,0,0,1-.684-11.127c.09-.4.09-.486.126-.7Zm8.229-.666c.18,0,.414.018.414.252,0,.2-.162.234-.288.27.018.63.252,3.367.288,3.925.054.648.09,1.4.09,2.106a10.435,10.435,0,0,1-5.42,9.9,6.622,6.622,0,0,0-2.341-2.106c4.322-2.089,4.736-5.2,4.736-7.85a25.323,25.323,0,0,0-.684-6.591Z" transform="translate(-1280.09 -47.365)" fill="#fff"/>
    </g>
    <g id="グループ_3703" data-name="グループ 3703" transform="translate(12.421 12.097)">
      <g id="グループ_3702" data-name="グループ 3702">
        <g id="グループ_3701" data-name="グループ 3701">
          <path id="パス_19224" data-name="パス 19224" d="M1269,62.845c0-8.408-8.429-15.248-18.79-15.248s-18.789,6.84-18.789,15.248c0,7.537,6.684,13.85,15.714,15.043.612.132,1.445.4,1.655.927a3.855,3.855,0,0,1,.061,1.7s-.22,1.326-.268,1.609c-.082.474-.378,1.857,1.627,1.012s10.821-6.371,14.763-10.909h0C1267.7,69.24,1269,66.21,1269,62.845" transform="translate(-1231.421 -47.597)" fill="#fff"/>
          <g id="グループ_3700" data-name="グループ 3700" transform="translate(6.164 11.185)">
            <path id="パス_19225" data-name="パス 19225" d="M1246.393,58.782h-1.318a.366.366,0,0,0-.366.365v8.187a.366.366,0,0,0,.366.366h1.318a.366.366,0,0,0,.366-.366V59.147a.366.366,0,0,0-.366-.365" transform="translate(-1237.585 -58.782)" fill="#00b900"/>
            <path id="パス_19226" data-name="パス 19226" d="M1255.464,58.782h-1.317a.366.366,0,0,0-.367.365v4.864l-3.752-5.067a.313.313,0,0,0-.028-.037h0l-.022-.022-.007-.007-.02-.016-.009-.007-.019-.013-.011-.007-.02-.011-.011-.006-.021-.009h-.012l-.022-.007h-.013l-.021-.005h-1.384a.366.366,0,0,0-.366.365v8.187a.366.366,0,0,0,.366.366h1.318a.366.366,0,0,0,.366-.366V62.472l3.757,5.073a.343.343,0,0,0,.092.091h0l.023.014.01.006.018.008.018.008h.01l.025.008h.006a.356.356,0,0,0,.094.013h1.317a.366.366,0,0,0,.366-.366v-8.18a.365.365,0,0,0-.366-.365" transform="translate(-1237.585 -58.782)" fill="#00b900"/>
            <path id="パス_19227" data-name="パス 19227" d="M1243.216,65.65h-3.581v-6.5a.366.366,0,0,0-.366-.366h-1.318a.366.366,0,0,0-.366.366v8.186h0a.364.364,0,0,0,.1.253l.005.006h.005a.365.365,0,0,0,.253.1h5.266a.365.365,0,0,0,.365-.366V66.016a.365.365,0,0,0-.365-.366" transform="translate(-1237.585 -58.782)" fill="#00b900"/>
            <path id="パス_19228" data-name="パス 19228" d="M1262.743,60.832a.365.365,0,0,0,.365-.366V59.148a.365.365,0,0,0-.365-.366h-5.266a.362.362,0,0,0-.254.1h0l-.006.007a.361.361,0,0,0-.1.252h0v8.186h0a.363.363,0,0,0,.1.253l0,.006h.005a.366.366,0,0,0,.253.1h5.266a.365.365,0,0,0,.365-.366v-1.3a.365.365,0,0,0-.365-.366h-3.581V64.266h3.581a.365.365,0,0,0,.365-.366V62.582a.365.365,0,0,0-.365-.366h-3.581V60.832Z" transform="translate(-1237.585 -58.782)" fill="#00b900"/>
          </g>
        </g>
      </g>
    </g>
  </g>
</svg>
