<svg xmlns="http://www.w3.org/2000/svg" width="59.836" height="59.836" viewBox="0 0 59.836 59.836">
  <g id="グループ_8321" data-name="グループ 8321" transform="translate(-972.547 -636)">
    <path id="パス_19167" data-name="パス 19167" d="M1002.918,37.893a27.525,27.525,0,1,1-27.525,27.525,27.525,27.525,0,0,1,27.525-27.525m0-2.393a29.918,29.918,0,1,0,29.918,29.918A29.918,29.918,0,0,0,1002.918,35.5Z" transform="translate(-0.453 600.5)" fill="#2a4c80"/>
    <g id="グループ_3691" data-name="グループ 3691" transform="translate(985.693 649.234)">
      <path id="パス_19168" data-name="パス 19168" d="M996.771,54.676h3.271v2.175h-3.271v2.021h5.429V61.08h-5.429v3.291h-2.613V61.08h-7.38V58.872h2.58v-4.2h4.8V52.855h-3.54a15.654,15.654,0,0,1-2.158,2.782,6.5,6.5,0,0,0-2.243-1.281,14.131,14.131,0,0,0,3.676-5.585l2.478.81c.1.034.2.085.2.185,0,.219-.236.236-.507.253-.084.218-.168.4-.235.573h9.674v2.259h-4.736Zm-2.614,2.175H992v2.021h2.158Z" transform="translate(-986.183 -48.771)" fill="#2a4c80"/>
      <path id="パス_19169" data-name="パス 19169" d="M1012.731,64.371h-2.563V59.464h-3.423v.692h-2.63V52.029h6.052v-3.1l2.782.152c.085,0,.27.017.27.2s-.236.252-.49.286v2.462h6.053v8.127h-2.58v-.692h-3.473Zm-2.563-10.048h-3.423v2.732h3.423Zm2.563,2.732h3.473V54.322h-3.473Z" transform="translate(-986.232 -48.771)" fill="#2a4c80"/>
      <path id="パス_19170" data-name="パス 19170" d="M999.79,79.269H987.482V77.326H989.1V75.252h-2.31V73.313h2.31V72.15c-.354.337-.54.489-.776.691a7.462,7.462,0,0,0-2.141-1.164,12.445,12.445,0,0,0,3.406-3.86l2.411.792c.085.034.169.085.169.185,0,.219-.269.27-.388.3a2.3,2.3,0,0,1-.169.218h9.914v2.094h-1.534v1.9h2.276v1.939h-2.276v2.074h1.753v1.94h-1.939a17.7,17.7,0,0,1,2.681,3.1,16.784,16.784,0,0,0-2.107,1.349,13.71,13.71,0,0,0-2.412-3.174Zm-8.784,1.046c.152.084.286.152.286.3,0,.185-.118.2-.422.253a16.542,16.542,0,0,1-2.194,3,5.468,5.468,0,0,0-2.073-1.349,8.974,8.974,0,0,0,2.512-3.152Zm.084-7h.977v-1.9h-.977Zm0,4.013h.977V75.256h-.977Zm2.428,2.411a11.223,11.223,0,0,1,1.079,3.3,15.274,15.274,0,0,0-2.462.658,13.6,13.6,0,0,0-.792-3.391Zm.523-6.424h.977v-1.9h-.977Zm0,4.013h.977V75.256h-.977Zm2.93,2.273a11.9,11.9,0,0,1,1.349,3.135,15.859,15.859,0,0,0-2.294.776,19.505,19.505,0,0,0-1.231-3.3Zm.018-8.195v1.9h.979v-1.9Zm0,3.843v2.074h.979V75.252Z" transform="translate(-986.183 -48.823)" fill="#2a4c80"/>
      <path id="パス_19171" data-name="パス 19171" d="M1008.328,73.955V71.59h4.114V68.1l2.427.118c.152,0,.4.017.4.219,0,.152-.118.27-.337.439V71.59h4.131v2.361h-3.391a16.725,16.725,0,0,0,4.182,5.984,4.525,4.525,0,0,0-1.821,1.9,16.039,16.039,0,0,1-3.1-4.488v6.188h-2.493v-6.1a20.354,20.354,0,0,1-3.254,4.3,6.68,6.68,0,0,0-1.569-1.281v3.086h-2.493v-7.18a3.413,3.413,0,0,1-.523.607,6.9,6.9,0,0,0-1.6-2.043,19.583,19.583,0,0,0,3.574-6.963l2.327.657c.119.034.388.1.388.32,0,.17-.2.236-.472.321-.169.388-.9,2.124-1.045,2.461.084.068.235.2.235.32,0,.2-.269.3-.388.354v7.386a19.477,19.477,0,0,0,4.132-5.834Z" transform="translate(-986.229 -48.823)" fill="#2a4c80"/>
    </g>
  </g>
</svg>
