<svg xmlns="http://www.w3.org/2000/svg" viewBox="0 0 200 56.5"><defs><style>.cls-1{fill:#fff;}.cls-2{fill:#76b3d1;}.cls-3{fill:#1ea939;}</style></defs><g id="レイヤー_2" data-name="レイヤー 2"><g id="レイヤー_2-2" data-name="レイヤー 2"><rect class="cls-1" x="1.37" y="1.61" width="197.26" height="53.28"/><path class="cls-2" d="M197.26,3.22V53.28H2.74V3.22H197.26M200,0H0V56.5H200V0Z"/><rect class="cls-2" width="200" height="17.86"/><path class="cls-3" d="M12.27,30.84a2.83,2.83,0,1,0,5.66,0c0-1.55-1.53-2.79-2.83-3.52C13.8,28.05,12.27,29.29,12.27,30.84Zm-3-8.71v15h23v-15Zm23,3.66a11.7,11.7,0,0,0-4.38.83c1.42.95,2.8,2.39,2.8,4.22a4.28,4.28,0,0,1-4.24,4.24,4.22,4.22,0,0,1-4.17-4.24,5.35,5.35,0,0,1,2.73-4.22,11.32,11.32,0,0,0-8.51,0,5.33,5.33,0,0,1,2.73,4.22,4.22,4.22,0,0,1-4.17,4.24,4.31,4.31,0,0,1-4.27-4.24c0-1.83,1.41-3.27,2.83-4.22a11.63,11.63,0,0,0-4.38-.83V24.47a13,13,0,0,1,5.82,1.32,12.45,12.45,0,0,1,5.7-1.32,12.41,12.41,0,0,1,5.69,1.32,13,13,0,0,1,5.82-1.32Zm-8.56,5a2.83,2.83,0,1,0,5.66,0c0-1.54-1.53-2.78-2.83-3.52C25.31,28,23.78,29.26,23.78,30.8Z"/><path class="cls-1" d="M29.76,14.58a4.88,4.88,0,0,1-2.33-.4,13.52,13.52,0,0,1-5.59-4.42,9.89,9.89,0,0,1-2-3.84A6.6,6.6,0,0,1,19.73,5a2.43,2.43,0,0,1,1.15-2.24,1,1,0,0,1,1.48.14A26.07,26.07,0,0,1,24,5.07a.82.82,0,0,1-.15,1c-.22.23-.45.44-.67.66a.83.83,0,0,0-.11,1.15,12.48,12.48,0,0,0,3.17,3.23.83.83,0,0,0,1.18-.1c.22-.21.43-.43.65-.63a.85.85,0,0,1,1.16-.07c.62.47,1.24,1,1.83,1.46a1.17,1.17,0,0,1,.05,1.93A2.59,2.59,0,0,1,29.76,14.58Z"/><path class="cls-1" d="M31.58,6.4a5.6,5.6,0,0,1-.28,3.28c-.14.35-.29.43-.58.32-.5-.19-.58-.32-.44-.72a4,4,0,0,0-5-5.38L25.12,4a.58.58,0,0,1-.79-.62A.61.61,0,0,1,24.65,3a5.09,5.09,0,0,1,6.6,2.51C31.41,5.83,31.51,6.21,31.58,6.4Z"/><path class="cls-1" d="M26.4,5.13a2.31,2.31,0,0,1,2.66,3c-.11.38-.21.43-.58.26a1.36,1.36,0,0,0-.21-.1C28,8.18,28,8,28,7.76a1.23,1.23,0,0,0-1-1.53,1.62,1.62,0,0,0-.49,0A.35.35,0,0,1,26,6,.67.67,0,0,0,26,5.9C25.71,5.37,25.78,5.28,26.4,5.13Z"/><path class="cls-1" d="M42.05,7.29c.87.49,1.42.83,2,1.2a8.13,8.13,0,0,0,.92-1.9H42a13.94,13.94,0,0,1-2.62,2.8,11.29,11.29,0,0,0-1.58-1.31,11.45,11.45,0,0,0,4.08-5.25l1.95.64c.13,0,.22.07.22.17s-.12.14-.3.15c-.22.42-.37.69-.6,1.07h2.73a2.47,2.47,0,0,0,.86-.13l.89.76c-.18.34-.19.35-.27.53a21.09,21.09,0,0,1-1.76,3.64,5.51,5.51,0,0,1,1.09,1.16c-.34.41-1,1.32-1.21,1.65a9.54,9.54,0,0,0-1.08-1.24,11.72,11.72,0,0,1-4.59,3,7.54,7.54,0,0,0-1.36-1.67A10.63,10.63,0,0,0,42.88,10a23,23,0,0,0-2-1.33Z"/><path class="cls-1" d="M50.48,5.94a18.86,18.86,0,0,1,1.15,2.29A7.73,7.73,0,0,0,50.05,9a24.11,24.11,0,0,0-1.18-2.39Zm7.08.2c.14,0,.24.08.24.19s-.18.14-.24.14c-1.05,4.44-3.06,6.18-6,7.43a5.2,5.2,0,0,0-1.19-1.41c3.2-1.24,4.8-2.93,5.34-6.91ZM53,5.37a9,9,0,0,1,1,2.35,13.73,13.73,0,0,0-1.58.65A19.83,19.83,0,0,0,51.4,6Z"/><path class="cls-1" d="M67.68,4.43c.39,0,.48-.07.6-.17l1.28.9a7,7,0,0,0-.8,1.66c-1,2.51-1.73,3.93-3.13,5.16a14.15,14.15,0,0,1-3.4,2.2,5.39,5.39,0,0,0-1.42-1.65,10.88,10.88,0,0,0,4-2.5,9.57,9.57,0,0,0,2-3.8H59.52V4.43Zm3.18-.85a1.18,1.18,0,1,1-2.35,0,1.16,1.16,0,0,1,1.17-1.17A1.17,1.17,0,0,1,70.86,3.58Zm-1.73,0a.55.55,0,0,0,.55.55.55.55,0,0,0,.55-.55.55.55,0,1,0-1.1,0Z"/><path class="cls-1" d="M74.87,3.34c.19,0,.29,0,.29.18s-.09.15-.24.21a27.44,27.44,0,0,0-.4,5c0,2.84.28,3.36,1.24,3.36,2.14,0,4-2.88,4.36-3.58a12.82,12.82,0,0,0,1.45,1.64c-1.42,2.31-3.55,4-6.07,4-2.78,0-3-2.35-3-5.47,0-.72.12-3.89.12-4.52,0-.37,0-.79,0-1.15Z"/><path class="cls-1" d="M93.4,5.07c-3.58,0-5.7,3.1-5.7,4.72,0,2.08,2.82,2.23,3.48,2.26a10.73,10.73,0,0,0-.93,2.25c-2.19-.51-4.6-1.67-4.6-4.36a5.49,5.49,0,0,1,2.21-4.13,43.51,43.51,0,0,0-5.16.73l-.26-2.35c.27,0,.53,0,.93,0A41.63,41.63,0,0,0,93,3Z"/><path class="cls-1" d="M101.2,4.62H106V7.41h-1.71V5.79H101.2V8.06H99.43V5.79H96.3V7.41H94.55V4.62h4.88v-.4H95.5V3h9.67V4.22h-4Zm0,9.68c-.94,0-1.77,0-1.77-1.41v-.4h-2v.84H95.76v-5h9v4.1a4.15,4.15,0,0,0,.17-.79,3.2,3.2,0,0,0,1.51.64c-.27,1.83-1.12,2.06-2.23,2.06ZM99.1,6.09v.79H96.64V6.09Zm0,1.09v.76H96.64V7.18Zm.33,2.23h-2v.5h2Zm0,1.45h-2v.51h2Zm1.77-.95H103v-.5H101.2Zm0,1.46H103v-.51H101.2Zm2.75,1.7c.52,0,.63-.22.76-.58H101.2c0,.53,0,.58.62.58Zm0-7v.79h-2.45V6.09Zm0,1.09v.76h-2.45V7.18Z"/><path class="cls-1" d="M114.37,6.17V5a13.87,13.87,0,0,1-2,.13,2.62,2.62,0,0,0-.46-1.54,12.75,12.75,0,0,0,5.36-.89l1.25,1.41a.18.18,0,0,1,0,.12c0,.1-.07.15-.17.15a.71.71,0,0,1-.28-.1,14.12,14.12,0,0,1-1.91.47V6.17h2.53V7.73h-2.53V9.07h2.1v5.27h-1.8v-.69H114.2v.7h-1.8V9.07h2V7.73h-2.56V6.31H106.9V4.93h5.26V6.17Zm-2.75,3.92v4.05h-1.56v-.49h-.9v.68h-1.8V10.09Zm-.25-6.87V4.57h-3.76V3.22Zm.11,3.45V8h-3.87V6.67Zm0,1.71V9.72h-3.87V8.38Zm-2.32,3.1v.79h.9v-.79Zm5,.6h2.27V10.61H114.2Z"/><path class="cls-1" d="M130.86,5.14c-3.09,0-5.76,2.73-5.76,4.75,0,1.45,1.83,2.16,3.53,2.2a17.42,17.42,0,0,0-.93,2.28c-1-.28-4.6-1.28-4.6-4.26a5.64,5.64,0,0,1,2.3-4.3,35.21,35.21,0,0,0-5.18.78l-.28-2.35A41.55,41.55,0,0,0,125.5,4a29.57,29.57,0,0,0,5-.92Zm-2.08,1.78A7.35,7.35,0,0,1,130,8.26c-.35.25-.53.38-1,.75a10.28,10.28,0,0,0-1.11-1.42ZM130.1,6a8.11,8.11,0,0,1,1.11,1.31c-.31.24-.53.43-.91.78a9,9,0,0,0-1.12-1.41Z"/><path class="cls-1" d="M137.65,2.88a7.1,7.1,0,0,0,.21,1.35A9.2,9.2,0,0,0,140,3.31a16.47,16.47,0,0,0,.69,1.52,9.23,9.23,0,0,1-2.32,1c.16.38.18.42.23.53A10.15,10.15,0,0,0,141.26,5c.14.28.84,1.39,1,1.61A11,11,0,0,1,139.5,8a11.93,11.93,0,0,0,1.88,2.39l-1.16,1.24a6.77,6.77,0,0,0-3.56-1.05c-.53,0-1.64.17-1.64.89s.68,1,2.18,1a9,9,0,0,0,3.27-.51,5.75,5.75,0,0,0-.14,1.33,3.21,3.21,0,0,0,0,.54,10.66,10.66,0,0,1-3.14.4c-3.21,0-4.24-1.54-4.24-2.74s1.22-2.37,3.32-2.37a14.06,14.06,0,0,1,1.74.14,6.54,6.54,0,0,1-.44-.75,22.62,22.62,0,0,1-4.17.44,7.07,7.07,0,0,1-.8,0l-.22-1.85c.77,0,1.25,0,1.53,0a14.77,14.77,0,0,0,2.87-.29c-.06-.14-.1-.25-.24-.55a24.62,24.62,0,0,1-3.12.3l-.4-1.75a14.82,14.82,0,0,0,2.86-.2c-.29-.75-.37-1-.51-1.46Z"/><path class="cls-1" d="M149.36,3.24c.11,0,.22,0,.22.17s-.13.16-.22.17c-.05.49-.05.6-.06.74.57,0,2.51,0,3.45.07V6.26a31.64,31.64,0,0,0-3.52-.12V7.52a16.58,16.58,0,0,0,3.18-.59V8.79a23.53,23.53,0,0,1-3.13.42c0,.53,0,.58,0,1.11A12.31,12.31,0,0,1,153.48,12a18.33,18.33,0,0,0-1.38,1.56A9.81,9.81,0,0,0,149.42,12c0,.64.11,2.12-2.62,2.12-1.94,0-3.35-.89-3.35-2,0-1.42,1.78-2,3.87-2,0-.29,0-.29,0-.74-1.24,0-3.5.06-3.5-1.18,0-.43.23-.83.88-1.51l1.37.31c-.23.3-.26.34-.26.43s0,.35,1.46.29c0-.23,0-1.24,0-1.44-1.54.06-2.89.24-3.93.37v-2c.62-.06,3.35-.19,3.91-.23,0-.47,0-1,0-1.53Zm-2.59,8.25c-.06,0-1.26,0-1.26.51s.69.46.9.46c.61,0,1-.23.91-.92A3.12,3.12,0,0,0,146.77,11.49Z"/><path class="cls-1" d="M161.12,3.06c.2,0,.31,0,.31.13s-.15.19-.25.22c0,.22,0,.37-.06.87,3.53-.15,3.91-.16,4.15-.19,0,.27,0,1.5,0,2C163,6,162.07,6,161.16,6a10.23,10.23,0,0,0,0,1.38,4.08,4.08,0,0,1,.73,2.4,5.93,5.93,0,0,1-2.9,4.83,8.14,8.14,0,0,0-1.83-1.29,4.45,4.45,0,0,0,2.3-1.8,1.38,1.38,0,0,1-1,.3,1.65,1.65,0,0,1-1.34-.56,3.16,3.16,0,0,1-.54-1.85,2.35,2.35,0,0,1,2.61-2.63c0-.4,0-.51,0-.7a34.75,34.75,0,0,0-5,.65l-.14-2.11c.29,0,.76,0,5.07-.26-.09-1.05-.09-1.09-.17-1.59Zm-2.89,6.25c0,.82.42,1,.64,1,.39,0,.61-.58.61-1.2,0-.29-.06-.78-.56-.78S158.23,8.79,158.23,9.31Z"/><path class="cls-1" d="M169.07,3.51V6.42l-.46,3.67h-1.2L167,6.42V3.51ZM167,11.24h2.11v2.11H167Z"/><path class="cls-1" d="M173,3.51V6.42l-.46,3.67h-1.2l-.45-3.67V3.51Zm-2.11,7.73H173v2.11H170.9Z"/></g></g></svg>