<svg xmlns="http://www.w3.org/2000/svg" xmlns:xlink="http://www.w3.org/1999/xlink" width="308.276" height="56.053" viewBox="0 0 308.276 56.053">
  <defs>
    <clipPath id="clip-path">
      <path id="パス_18436" data-name="パス 18436" d="M1240.723,4614.223H934.668v-53.83h306.054l-11.147,27.009Z"/>
    </clipPath>
    <clipPath id="clip-path-2">
      <path id="パス_18438" data-name="パス 18438" d="M1238.5,4612H932.446v-53.83H1238.5l-11.147,27.009Z" fill="#eee3b6"/>
    </clipPath>
  </defs>
  <g id="グループ_8327" data-name="グループ 8327" transform="translate(15670.554 16512.83)">
    <g id="グループ_8326" data-name="グループ 8326" transform="translate(1 -275)">
      <g id="グループ_3282" data-name="グループ 3282" transform="translate(-16604 -20796)" opacity="0.2" style="mix-blend-mode: multiply;isolation: isolate">
        <g id="グループ_3281" data-name="グループ 3281">
          <path id="パス_18435" data-name="パス 18435" d="M1240.723,4614.223H934.668v-53.83h306.054l-11.147,27.009Z"/>
          <g id="グループ_3280" data-name="グループ 3280" clip-path="url(#clip-path)">
            <rect id="長方形_973" data-name="長方形 973" width="306.054" height="26.915" transform="translate(934.668 4587.308)"/>
          </g>
        </g>
      </g>
      <g id="グループ_3285" data-name="グループ 3285" transform="translate(-16604 -20796)">
        <g id="グループ_3284" data-name="グループ 3284">
          <path id="パス_18437" data-name="パス 18437" d="M1238.5,4612H932.446v-53.83H1238.5l-11.147,27.009Z" fill="#eee3b6"/>
          <g id="グループ_3283" data-name="グループ 3283" clip-path="url(#clip-path-2)">
            <rect id="長方形_974" data-name="長方形 974" width="306.054" height="26.915" transform="translate(932.446 4585.085)" fill="#e5d49a"/>
          </g>
        </g>
      </g>
      <circle id="楕円形_279" data-name="楕円形 279" cx="22.876" cy="22.876" r="22.876" transform="translate(-15663.253 -16233.379)" fill="#ca1c40" stroke="#e5d49a" stroke-width="4.323"/>
      <g id="グループ_3287" data-name="グループ 3287" transform="translate(-16604 -20796)">
        <path id="パス_18439" data-name="パス 18439" d="M951.642,4574.24c-.082.316-.137.481-.3.481-.1,0-.151-.082-.206-.179l-.934-1.744a6.366,6.366,0,0,0,2.005-.343v-3.488a7.653,7.653,0,0,0-1.483.1l-.234-.508c.577.055,1.14.082,1.717.082v-3.282a7.514,7.514,0,0,0-1.593.1l-.22-.508c.646.055,1.3.082,1.95.082h1.14l.453-.713c.028-.056.138-.179.206-.179.083,0,.124.041.261.165l.852.7a.311.311,0,0,1,.137.206c0,.137-.137.151-.206.151h-1.634v3.282h.11l.439-.755c.028-.055.11-.165.192-.165s.193.1.248.151l.782.742c.1.082.138.137.138.22,0,.137-.138.137-.206.137h-1.7v3.09c1.263-.4,1.716-.577,2.046-.714l.055.11A36.092,36.092,0,0,1,951.642,4574.24Zm11.1,1.387h-7.374a6.847,6.847,0,0,0-1.484.1l-.219-.509c.837.069,1.8.083,1.95.083h2.348v-2.486h-.865a6.849,6.849,0,0,0-1.483.1l-.22-.508c.824.069,1.8.082,1.95.082h.618v-2.307H956.8a.731.731,0,0,1-.81.866c-.48,0-.48-.316-.48-.522,0-.563.027-3.09.027-3.6a12.787,12.787,0,0,0-.151-3.007l1.579.659H960.4l.411-.549c.083-.11.124-.165.193-.165a.464.464,0,0,1,.233.11l.934.728a.207.207,0,0,1,.11.179c0,.178-.22.329-.4.466,0,.481-.014,1.209.013,2.376,0,.357.069,1.978.069,2.307,0,.55-.494.783-.961.783-.536,0-.522-.343-.508-.632h-1.181v2.307h.851l.6-.824c.083-.123.138-.178.22-.178s.192.1.247.137l.962.838c.068.068.137.082.137.206s-.124.151-.206.151h-2.815v2.486h1.359l.6-.921c.1-.15.165-.178.206-.178.083,0,.206.11.261.151l1.058.92c.082.069.137.124.137.206C962.944,4575.6,962.834,4575.627,962.738,4575.627Zm-4.779-10.725h-1.167v2.266h1.167Zm0,2.6h-1.167v2.348h1.167Zm2.554-2.6h-1.194v2.266h1.194Zm0,2.6h-1.194v2.348h1.194Z" fill="none" stroke="#ca1c40" stroke-linecap="round" stroke-linejoin="round" stroke-width="4.323"/>
        <path id="パス_18440" data-name="パス 18440" d="M975.64,4567.607v4.422c0,.481.082,2.568.082,2.994a.741.741,0,0,1-.233.618,1.25,1.25,0,0,1-.811.288c-.494,0-.563-.329-.521-.906h-7.389a.865.865,0,0,1-.947,1.016c-.618,0-.618-.371-.618-.59,0-.193.055-1.044.068-1.222.069-1.662.069-4.464.069-5.054a14.887,14.887,0,0,0-.151-3.117l1.854.741h2.664c-.014-.261-.014-1.456-.027-1.689a6.318,6.318,0,0,0-.33-1.525l2.142.426a.194.194,0,0,1,.152.179c0,.082,0,.165-.481.494v2.115h2.911l.44-.673c.123-.192.192-.192.247-.192a.464.464,0,0,1,.247.124l1.044.768a.223.223,0,0,1,.123.193C976.175,4567.209,975.75,4567.525,975.64,4567.607Zm-5.933-.481h-2.939v3.489h2.939Zm0,3.818h-2.939v3.749h2.939Zm4.463-3.818h-3.007v3.489h3.007Zm0,3.818h-3.007v3.749h3.007Z" fill="none" stroke="#ca1c40" stroke-linecap="round" stroke-linejoin="round" stroke-width="4.323"/>
        <path id="パス_18441" data-name="パス 18441" d="M961.827,4595.917a3.589,3.589,0,0,0,2.178,1.347,2.311,2.311,0,0,0,2.111-1,4.132,4.132,0,0,0,.637-2.272,4.6,4.6,0,0,0-1.97-3.834,14.467,14.467,0,0,0-3.566-1.7v-.443a9.156,9.156,0,0,0,2.373-1.112,2.98,2.98,0,0,0,1.22-2.507,2.612,2.612,0,0,0-.825-2.084,3.238,3.238,0,0,0-4.229.141,6.915,6.915,0,0,0-1.139,1.434l-.576-.322a7.628,7.628,0,0,1,1.836-2.44,6.438,6.438,0,0,1,4.45-1.715,4.9,4.9,0,0,1,3.056.992,3.494,3.494,0,0,1,1.434,2.587,4.065,4.065,0,0,1-.5,2.031,3.757,3.757,0,0,1-1.629,1.467v.2a4.66,4.66,0,0,1,2.413,1.978,5.472,5.472,0,0,1,.764,2.781,6.557,6.557,0,0,1-2.279,5.026,8.517,8.517,0,0,1-6.005,2.185,5.9,5.9,0,0,1-2.949-.67,2,2,0,0,1-1.179-1.769,1.765,1.765,0,0,1,.422-1.119,1.671,1.671,0,0,1,1.387-.53A3.725,3.725,0,0,1,961.827,4595.917Z" fill="none" stroke="#ca1c40" stroke-linecap="round" stroke-linejoin="round" stroke-width="4.323"/>
      </g>
      <g id="グループ_3288" data-name="グループ 3288" transform="translate(-16604 -20796)">
        <path id="パス_18442" data-name="パス 18442" d="M951.642,4574.24c-.082.316-.137.481-.3.481-.1,0-.151-.082-.206-.179l-.934-1.744a6.366,6.366,0,0,0,2.005-.343v-3.488a7.653,7.653,0,0,0-1.483.1l-.234-.508c.577.055,1.14.082,1.717.082v-3.282a7.514,7.514,0,0,0-1.593.1l-.22-.508c.646.055,1.3.082,1.95.082h1.14l.453-.713c.028-.056.138-.179.206-.179.083,0,.124.041.261.165l.852.7a.311.311,0,0,1,.137.206c0,.137-.137.151-.206.151h-1.634v3.282h.11l.439-.755c.028-.055.11-.165.192-.165s.193.1.248.151l.782.742c.1.082.138.137.138.22,0,.137-.138.137-.206.137h-1.7v3.09c1.263-.4,1.716-.577,2.046-.714l.055.11A36.092,36.092,0,0,1,951.642,4574.24Zm11.1,1.387h-7.374a6.847,6.847,0,0,0-1.484.1l-.219-.509c.837.069,1.8.083,1.95.083h2.348v-2.486h-.865a6.849,6.849,0,0,0-1.483.1l-.22-.508c.824.069,1.8.082,1.95.082h.618v-2.307H956.8a.731.731,0,0,1-.81.866c-.48,0-.48-.316-.48-.522,0-.563.027-3.09.027-3.6a12.787,12.787,0,0,0-.151-3.007l1.579.659H960.4l.411-.549c.083-.11.124-.165.193-.165a.464.464,0,0,1,.233.11l.934.728a.207.207,0,0,1,.11.179c0,.178-.22.329-.4.466,0,.481-.014,1.209.013,2.376,0,.357.069,1.978.069,2.307,0,.55-.494.783-.961.783-.536,0-.522-.343-.508-.632h-1.181v2.307h.851l.6-.824c.083-.123.138-.178.22-.178s.192.1.247.137l.962.838c.068.068.137.082.137.206s-.124.151-.206.151h-2.815v2.486h1.359l.6-.921c.1-.15.165-.178.206-.178.083,0,.206.11.261.151l1.058.92c.082.069.137.124.137.206C962.944,4575.6,962.834,4575.627,962.738,4575.627Zm-4.779-10.725h-1.167v2.266h1.167Zm0,2.6h-1.167v2.348h1.167Zm2.554-2.6h-1.194v2.266h1.194Zm0,2.6h-1.194v2.348h1.194Z" fill="#fff"/>
        <path id="パス_18443" data-name="パス 18443" d="M975.64,4567.607v4.422c0,.481.082,2.568.082,2.994a.741.741,0,0,1-.233.618,1.25,1.25,0,0,1-.811.288c-.494,0-.563-.329-.521-.906h-7.389a.865.865,0,0,1-.947,1.016c-.618,0-.618-.371-.618-.59,0-.193.055-1.044.068-1.222.069-1.662.069-4.464.069-5.054a14.887,14.887,0,0,0-.151-3.117l1.854.741h2.664c-.014-.261-.014-1.456-.027-1.689a6.318,6.318,0,0,0-.33-1.525l2.142.426a.194.194,0,0,1,.152.179c0,.082,0,.165-.481.494v2.115h2.911l.44-.673c.123-.192.192-.192.247-.192a.464.464,0,0,1,.247.124l1.044.768a.223.223,0,0,1,.123.193C976.175,4567.209,975.75,4567.525,975.64,4567.607Zm-5.933-.481h-2.939v3.489h2.939Zm0,3.818h-2.939v3.749h2.939Zm4.463-3.818h-3.007v3.489h3.007Zm0,3.818h-3.007v3.749h3.007Z" fill="#fff"/>
        <path id="パス_18444" data-name="パス 18444" d="M961.827,4595.917a3.589,3.589,0,0,0,2.178,1.347,2.311,2.311,0,0,0,2.111-1,4.132,4.132,0,0,0,.637-2.272,4.6,4.6,0,0,0-1.97-3.834,14.467,14.467,0,0,0-3.566-1.7v-.443a9.156,9.156,0,0,0,2.373-1.112,2.98,2.98,0,0,0,1.22-2.507,2.612,2.612,0,0,0-.825-2.084,3.238,3.238,0,0,0-4.229.141,6.915,6.915,0,0,0-1.139,1.434l-.576-.322a7.628,7.628,0,0,1,1.836-2.44,6.438,6.438,0,0,1,4.45-1.715,4.9,4.9,0,0,1,3.056.992,3.494,3.494,0,0,1,1.434,2.587,4.065,4.065,0,0,1-.5,2.031,3.757,3.757,0,0,1-1.629,1.467v.2a4.66,4.66,0,0,1,2.413,1.978,5.472,5.472,0,0,1,.764,2.781,6.557,6.557,0,0,1-2.279,5.026,8.517,8.517,0,0,1-6.005,2.185,5.9,5.9,0,0,1-2.949-.67,2,2,0,0,1-1.179-1.769,1.765,1.765,0,0,1,.422-1.119,1.671,1.671,0,0,1,1.387-.53A3.725,3.725,0,0,1,961.827,4595.917Z" fill="#fff"/>
      </g>
    </g>
  </g>
</svg>
